<svg version="1.1" id="Layer_1" xmlns="http://www.w3.org/2000/svg" xmlns:xlink="http://www.w3.org/1999/xlink" x="0px" y="0px"
	 width="100%" viewBox="0 0 1024 1024" enable-background="new 0 0 1024 1024" xml:space="preserve">
<path fill="#FFFFFF" opacity="1.000000" stroke="none" 
	d="
M1025.000000,503.000000 
	C1025.000000,677.333313 1025.000000,851.166687 1025.000000,1025.000000 
	C683.666687,1025.000000 342.333344,1025.000000 1.000000,1025.000000 
	C1.000000,683.666687 1.000000,342.333344 1.000000,1.000000 
	C342.333344,1.000000 683.666687,1.000000 1025.000000,1.000000 
	C1025.000000,168.166672 1025.000000,335.333344 1025.000000,503.000000 
M537.995850,357.149323 
	C537.303772,352.222717 536.889648,347.238068 535.875366,342.378723 
	C528.211670,305.660217 498.326752,290.299103 468.877045,290.478699 
	C461.019836,291.117310 453.162598,291.755890 444.578674,292.195618 
	C439.461304,288.034088 434.627136,283.450348 429.172699,279.791229 
	C413.634033,269.367035 396.040070,267.934479 377.062347,268.879913 
	C363.258972,268.611359 349.449585,267.989990 335.654846,268.226044 
	C328.957550,268.340637 324.703186,265.983002 321.376404,260.387634 
	C320.377747,258.708008 317.585663,257.285980 315.541718,257.181335 
	C308.067810,256.798737 300.559143,257.156525 293.071350,256.951874 
	C289.972290,256.867157 288.256378,257.877655 286.966370,260.745331 
	C284.487610,266.255463 280.036743,269.030731 273.887634,269.011322 
	C272.242676,269.006104 270.592194,269.343140 268.951599,269.574982 
	C246.553040,272.740448 227.035690,282.293854 210.072495,296.961700 
	C187.043686,316.874481 174.207428,342.127350 173.013535,372.660217 
	C172.317886,390.451172 172.826126,408.289886 172.846466,426.107025 
	C172.848129,427.566864 173.264008,429.026215 172.943344,430.907654 
	C156.409439,439.407288 149.171478,453.216217 149.576950,471.505432 
	C149.750183,479.319427 149.898941,487.151459 149.576447,494.955414 
	C148.795883,513.844055 155.843613,528.183716 172.975189,537.439636 
	C172.984039,537.626404 172.992889,537.813171 172.848343,538.664734 
	C172.873535,539.117981 172.898727,539.571289 172.836945,540.890259 
	C172.870026,542.918396 172.903107,544.946594 172.848770,547.813965 
	C172.878189,549.218201 172.907608,550.622498 172.846680,552.926514 
	C172.875595,555.941467 172.904510,558.956482 172.843231,562.911133 
	C172.873260,593.284424 172.903290,623.657715 172.842728,654.961121 
	C172.848724,660.439270 172.896469,665.917725 172.853073,671.395508 
	C172.709473,689.521729 177.119354,706.468201 185.693390,722.422607 
	C192.207260,734.543396 201.029816,744.752991 210.644333,754.573486 
	C209.139908,756.734314 207.635468,758.895203 205.334167,761.030334 
	C203.577896,761.503601 201.780472,761.860962 200.071487,762.467468 
	C171.225403,772.704773 142.416595,783.047791 113.542503,793.205200 
	C97.600922,798.813232 84.816643,808.447754 75.341644,822.391663 
	C65.842628,836.370911 62.281891,852.098328 62.260269,868.772095 
	C62.217701,901.592041 62.214264,934.412048 62.214226,967.231995 
	C62.214222,968.678711 62.408279,970.125427 62.539146,971.951782 
	C64.695168,971.951782 66.496323,971.954895 68.297462,971.951416 
	C208.722137,971.680237 349.146790,971.412903 489.571472,971.133606 
	C522.388428,971.068359 555.205200,970.962463 588.948181,971.010620 
	C612.525269,971.010620 636.102295,971.010620 659.480347,971.010620 
	C659.787537,970.104553 659.978943,969.801941 659.980164,969.498535 
	C660.018799,959.510132 660.039429,949.521729 660.062317,939.533264 
	C660.090088,927.393738 663.151306,923.210266 674.655762,919.628113 
	C674.655762,908.220032 674.655762,896.803650 674.655762,885.481873 
	C664.075806,882.361877 660.390930,876.914368 660.097473,864.320190 
	C659.323975,831.123169 639.651062,803.881409 608.273010,792.680237 
	C599.505249,789.550354 590.677979,786.585693 581.859985,783.598450 
	C559.980286,776.186279 538.090210,768.804749 515.903809,760.835999 
	C511.804230,757.228577 507.704651,753.621155 504.324432,749.945374 
	C506.357330,747.978882 508.473999,746.091248 510.410034,744.033630 
	C527.092651,726.303406 536.761353,705.493408 538.213318,680.220215 
	C538.415405,676.736328 538.790161,673.252502 538.793152,669.768494 
	C538.828796,628.350281 538.804626,586.932007 538.814575,545.513794 
	C538.815186,543.028687 538.972107,540.543640 539.742126,537.845154 
	C558.213135,530.227966 567.130005,516.904541 567.079102,497.042847 
	C567.054382,487.407410 567.100647,477.771729 567.058044,468.136444 
	C566.975281,449.429626 556.670959,435.073761 538.840149,428.065796 
	C538.829163,411.324493 538.896301,394.582611 538.768372,377.842224 
	C538.717896,371.231781 538.233032,364.624695 537.995850,357.149323 
M916.387939,57.361984 
	C914.573547,57.241539 912.759155,57.016003 910.944763,57.015705 
	C812.809143,56.999611 714.673462,56.966942 616.537903,57.047207 
	C603.917847,57.057529 591.295105,57.571999 578.679688,58.024044 
	C568.794434,58.378265 561.002747,66.675674 561.002258,76.581459 
	C560.997620,179.882141 561.015076,283.182831 560.964539,386.483490 
	C560.960693,394.337158 564.190247,400.437622 571.416077,402.925415 
	C576.651489,404.727936 582.620605,404.877167 588.268982,404.920502 
	C613.426147,405.113525 638.586060,404.931000 663.744263,405.047760 
	C670.991699,405.081390 673.578796,407.195740 674.935364,414.445007 
	C675.611755,418.058899 675.008911,421.909851 675.006714,425.653564 
	C674.999512,437.837036 674.965271,450.020752 675.046265,462.203674 
	C675.056946,463.808990 675.675476,465.410309 675.998596,467.947968 
	C675.998596,480.504059 675.998596,493.060150 675.998596,505.712463 
	C677.342346,505.712463 678.023071,505.920532 678.263428,505.682953 
	C711.867249,472.476440 745.438965,439.237488 779.841675,405.894531 
	C781.956665,405.596771 784.070618,405.049347 786.186829,405.040680 
	C803.307068,404.970367 820.428040,404.933655 837.548096,405.021698 
	C852.342590,405.097809 852.769958,407.099030 856.819336,418.203979 
	C857.977661,421.380676 859.654724,422.132080 862.690247,422.055298 
	C869.334717,421.887299 875.999756,421.748749 882.630371,422.095856 
	C886.841858,422.316315 888.963379,420.989014 890.011230,416.807373 
	C891.562805,410.615631 894.864319,405.949127 902.157593,405.769775 
	C908.437561,405.615356 914.712891,405.268860 921.929565,405.011658 
	C930.096069,405.011078 938.308411,404.459869 946.418640,405.134979 
	C959.605896,406.232666 968.232910,394.314697 968.193542,383.377869 
	C967.861938,291.214478 968.004028,199.049393 968.003540,106.884819 
	C968.003479,96.885048 968.080200,86.884483 967.978271,76.885750 
	C967.891418,68.368484 960.727722,59.170506 952.739990,58.224804 
	C945.014282,57.310127 937.172913,57.236877 929.377014,57.106232 
	C925.256226,57.037170 921.124329,57.633057 916.387939,57.361984 
z"/>
<path fill="#FF7972" opacity="1.000000" stroke="none" 
	d="
M588.022095,970.875305 
	C555.205200,970.962463 522.388428,971.068359 489.571472,971.133606 
	C349.146790,971.412903 208.722137,971.680237 68.297462,971.951416 
	C66.496323,971.954895 64.695168,971.951782 62.539146,971.951782 
	C62.408279,970.125427 62.214222,968.678711 62.214226,967.231995 
	C62.214264,934.412048 62.217701,901.592041 62.260269,868.772095 
	C62.281891,852.098328 65.842628,836.370911 75.341644,822.391663 
	C84.816643,808.447754 97.600922,798.813232 113.542503,793.205200 
	C142.416595,783.047791 171.225403,772.704773 200.071487,762.467468 
	C201.780472,761.860962 203.577896,761.503601 205.764801,761.478271 
	C205.124954,767.953430 207.714050,772.354065 211.897003,776.512390 
	C240.946320,805.390442 269.856995,834.408020 298.825714,863.367188 
	C316.136078,880.671753 333.413269,898.010254 350.824341,915.213074 
	C357.602692,921.910339 366.203796,921.961365 372.537872,915.605469 
	C395.690247,892.373291 418.765320,869.063965 441.936920,845.851013 
	C463.914551,823.834167 485.976624,801.901611 508.061676,780.290527 
	C508.732086,781.133667 509.269104,781.831543 509.963898,782.070312 
	C518.590515,785.034424 527.319336,787.718628 535.865845,790.894531 
	C549.851013,796.091431 561.595642,804.501526 571.086609,816.106384 
	C583.581787,831.384521 587.946960,849.224182 587.974854,868.467407 
	C588.024353,902.603333 588.009827,936.739319 588.022095,970.875305 
z"/>
<path fill="#F2F6F7" opacity="1.000000" stroke="none" 
	d="
M676.012451,467.013489 
	C675.675476,465.410309 675.056946,463.808990 675.046265,462.203674 
	C674.965271,450.020752 674.999512,437.837036 675.006714,425.653564 
	C675.008911,421.909851 675.611755,418.058899 674.935364,414.445007 
	C673.578796,407.195740 670.991699,405.081390 663.744263,405.047760 
	C638.586060,404.931000 613.426147,405.113525 588.268982,404.920502 
	C582.620605,404.877167 576.651489,404.727936 571.416077,402.925415 
	C564.190247,400.437622 560.960693,394.337158 560.964539,386.483490 
	C561.015076,283.182831 560.997620,179.882141 561.002258,76.581459 
	C561.002747,66.675674 568.794434,58.378265 578.679688,58.024044 
	C591.295105,57.571999 603.917847,57.057529 616.537903,57.047207 
	C714.673462,56.966942 812.809143,56.999611 910.944763,57.015705 
	C912.759155,57.016003 914.573547,57.241539 916.874512,57.936287 
	C925.352173,61.770023 925.990112,68.694923 925.990540,75.903481 
	C925.996521,177.372192 925.983582,278.840912 926.010742,380.309631 
	C926.013062,388.907928 926.642151,397.581757 920.990234,405.007263 
	C914.712891,405.268860 908.437561,405.615356 902.157593,405.769775 
	C894.864319,405.949127 891.562805,410.615631 890.011230,416.807373 
	C888.963379,420.989014 886.841858,422.316315 882.630371,422.095856 
	C875.999756,421.748749 869.334717,421.887299 862.690247,422.055298 
	C859.654724,422.132080 857.977661,421.380676 856.819336,418.203979 
	C852.769958,407.099030 852.342590,405.097809 837.548096,405.021698 
	C820.428040,404.933655 803.307068,404.970367 786.186829,405.040680 
	C784.070618,405.049347 781.956665,405.596771 778.956909,405.946716 
	C766.440308,405.999695 754.796692,405.710266 743.184387,406.186310 
	C739.896118,406.321106 736.068848,407.977142 733.582947,410.173798 
	C726.995972,415.994293 720.946228,422.432159 714.794678,428.733734 
	C705.872986,437.873077 697.140320,447.198517 688.141418,456.260284 
	C684.341797,460.086395 680.069763,463.443329 676.012451,467.013489 
M827.086365,107.410904 
	C757.063599,77.750618 676.593750,109.687935 646.738831,178.287781 
	C616.392090,248.017502 648.952332,329.989655 717.850708,359.887695 
	C788.161011,390.398438 868.836670,358.396667 899.422791,287.284576 
	C929.701843,216.886597 896.002258,137.769272 827.086365,107.410904 
z"/>
<path fill="#020202" opacity="1.000000" stroke="none" 
	d="
M508.001587,779.932007 
	C485.976624,801.901611 463.914551,823.834167 441.936920,845.851013 
	C418.765320,869.063965 395.690247,892.373291 372.537872,915.605469 
	C366.203796,921.961365 357.602692,921.910339 350.824341,915.213074 
	C333.413269,898.010254 316.136078,880.671753 298.825714,863.367188 
	C269.856995,834.408020 240.946320,805.390442 211.897003,776.512390 
	C207.714050,772.354065 205.124954,767.953430 206.163239,761.491089 
	C207.635468,758.895203 209.139908,756.734314 211.186157,754.214233 
	C227.522278,747.272034 243.277084,740.591187 259.144745,734.190002 
	C262.254120,732.935608 263.349243,731.492859 263.305878,728.064209 
	C263.091003,711.075195 263.030060,694.079224 263.312042,677.092224 
	C263.386169,672.626831 261.864136,669.893250 258.557404,667.073853 
	C227.599869,640.679077 210.463058,607.269531 208.457855,566.461365 
	C208.020782,557.566406 208.393936,548.631653 208.393936,540.482239 
	C195.767639,539.197510 184.426804,538.043579 173.085953,536.889648 
	C155.843613,528.183716 148.795883,513.844055 149.576447,494.955414 
	C149.898941,487.151459 149.750183,479.319427 149.576950,471.505432 
	C149.171478,453.216217 156.409439,439.407288 173.603668,430.730530 
	C179.650513,429.638489 185.005447,428.250580 190.428848,427.888824 
	C216.999283,426.116455 243.688644,425.554810 270.137024,422.713348 
	C289.912262,420.588806 309.385010,415.648163 329.391022,412.001984 
	C356.545746,405.723663 382.655273,397.331940 407.313995,385.181519 
	C420.654907,378.607880 433.631409,370.971954 445.788452,362.417084 
	C456.164490,355.115509 460.351715,343.681305 459.724213,330.894196 
	C459.102814,318.231171 454.216614,307.065491 447.181061,296.703247 
	C446.316315,295.429626 445.919189,293.838470 445.305359,292.394470 
	C453.162598,291.755890 461.019836,291.117310 469.418060,290.928406 
	C486.047211,310.747925 489.305359,332.548157 481.975311,356.471924 
	C509.808411,372.147980 519.508911,396.893585 516.835205,427.988190 
	C523.123413,427.988190 528.565491,427.988190 534.322266,428.169373 
	C536.094971,428.563263 537.553040,428.776031 539.011169,428.988770 
	C556.670959,435.073761 566.975281,449.429626 567.058044,468.136444 
	C567.100647,477.771729 567.054382,487.407410 567.079102,497.042847 
	C567.130005,516.904541 558.213135,530.227966 539.071777,537.928345 
	C537.611694,538.360229 536.821960,538.708862 535.588318,539.024109 
	C529.208862,539.326599 523.273193,539.662415 516.803650,540.028503 
	C516.803650,542.236694 516.861633,544.197815 516.793640,546.154602 
	C516.493225,554.800354 516.800110,563.525940 515.722778,572.075928 
	C510.813934,611.036560 494.179688,643.744080 463.258942,668.693787 
	C461.619385,670.016663 460.304138,672.786133 460.277985,674.899963 
	C460.053467,693.057007 460.234436,711.218750 460.100250,729.377625 
	C460.076508,732.586914 461.252594,734.081299 464.155151,735.209412 
	C475.782959,739.729065 487.309113,744.509705 498.908447,749.103943 
	C500.365509,749.681091 502.034363,749.723511 503.605072,750.013733 
	C507.704651,753.621155 511.804230,757.228577 515.987305,761.612305 
	C517.686096,770.216553 512.868286,775.085510 508.001587,779.932007 
M530.697693,514.008972 
	C538.625427,511.531799 541.925049,507.248230 541.951172,499.243347 
	C541.985779,488.637787 542.048096,478.031128 541.937073,467.426636 
	C541.855835,459.663177 536.837524,454.286102 528.051392,452.973328 
	C524.442383,452.973328 520.833374,452.973328 516.985352,452.973328 
	C516.985352,473.482544 516.985352,493.612640 516.985352,513.881836 
	C521.436768,513.881836 525.696655,513.881836 530.697693,514.008972 
M415.917847,753.828369 
	C420.339447,749.556091 424.541168,745.020752 429.246185,741.087585 
	C433.699280,737.365051 435.299896,733.182129 435.087921,727.327332 
	C434.615784,714.286865 434.940552,701.217590 434.940552,687.284790 
	C413.507172,697.437866 391.662201,702.441528 368.082916,703.970215 
	C340.410034,705.112915 314.131866,699.270569 288.744629,687.262024 
	C288.744629,702.648682 288.596039,717.140381 288.888580,731.623169 
	C288.938293,734.083252 290.304932,737.068604 292.046295,738.850464 
	C301.360077,748.380615 310.989044,757.602600 320.502716,766.937622 
	C334.159973,780.338257 347.811737,793.744446 362.274414,807.942017 
	C380.067719,789.880615 397.697357,771.985291 415.917847,753.828369 
M448.797577,393.136139 
	C448.797577,393.136139 448.760254,393.097504 448.042206,393.304504 
	C443.160858,396.147247 438.391266,399.205841 433.380859,401.799286 
	C382.689606,428.037659 328.325470,441.801636 272.054169,448.911224 
	C259.233704,450.530975 246.328964,451.483551 233.097855,452.778961 
	C233.097855,453.840881 233.091660,454.978363 233.098785,456.115753 
	C233.298828,488.090118 233.484970,520.064575 233.708450,552.038757 
	C233.806396,566.051697 234.918900,579.888672 239.320770,593.372314 
	C257.699829,649.670166 316.030945,682.204285 372.850983,677.009583 
	C382.320099,675.316528 392.037842,674.473938 401.217529,671.790710 
	C455.895477,655.808411 489.625793,611.311035 490.125427,554.868835 
	C490.542603,507.738159 490.754333,460.605499 490.982239,413.473358 
	C491.063019,396.768494 482.487549,384.838989 466.865967,379.220703 
	C460.835175,383.871582 454.926971,388.427887 448.859253,392.988007 
	C448.859253,392.988007 448.752472,393.106567 448.797577,393.136139 
M463.742889,787.252014 
	C469.418549,781.872192 475.094208,776.492432 481.439606,770.477844 
	C470.298889,765.609131 460.328644,761.251953 450.223877,756.835938 
	C424.592133,782.230835 399.142365,807.421204 373.724487,832.643677 
	C366.346436,839.965027 357.847015,840.126404 350.488953,832.896790 
	C340.268829,822.854980 330.099182,812.761780 319.881348,802.717651 
	C304.087067,787.191772 288.270203,771.688904 272.445862,756.159546 
	C262.289307,760.617310 252.293930,765.004395 242.558655,769.277283 
	C282.349335,809.086548 322.114166,848.869995 362.216675,888.991272 
	C395.719696,855.419312 429.485962,821.583557 463.742889,787.252014 
M192.628357,452.911224 
	C182.051682,452.903961 174.885651,457.871613 174.537048,466.529755 
	C174.076218,477.974792 174.209061,489.464722 174.624527,500.915863 
	C174.861511,507.447601 179.941559,513.333923 185.871170,513.830750 
	C193.060181,514.433289 200.338196,513.973755 207.639832,513.973755 
	C207.639832,493.475800 207.639832,473.436279 207.639832,452.914093 
	C202.800964,452.914093 198.196808,452.914093 192.628357,452.911224 
z"/>
<path fill="#A7A7A7" opacity="1.000000" stroke="none" 
	d="
M328.992432,411.961426 
	C309.385010,415.648163 289.912262,420.588806 270.137024,422.713348 
	C243.688644,425.554810 216.999283,426.116455 190.428848,427.888824 
	C185.005447,428.250580 179.650513,429.638489 173.875702,430.519592 
	C173.264008,429.026215 172.848129,427.566864 172.846466,426.107025 
	C172.826126,408.289886 172.317886,390.451172 173.013535,372.660217 
	C174.207428,342.127350 187.043686,316.874481 210.072495,296.961700 
	C227.035690,282.293854 246.553040,272.740448 268.951599,269.574982 
	C270.592194,269.343140 272.242676,269.006104 273.887634,269.011322 
	C280.036743,269.030731 284.487610,266.255463 286.966370,260.745331 
	C288.256378,257.877655 289.972290,256.867157 293.071350,256.951874 
	C300.559143,257.156525 308.067810,256.798737 315.541718,257.181335 
	C317.585663,257.285980 320.377747,258.708008 321.376404,260.387634 
	C324.703186,265.983002 328.957550,268.340637 335.654846,268.226044 
	C349.449585,267.989990 363.258972,268.611359 377.719147,269.220032 
	C379.993103,270.408203 381.642944,271.199799 383.222290,272.113281 
	C395.765900,279.368378 406.032257,289.119843 411.537079,302.545227 
	C421.529449,326.915039 415.610931,348.744110 398.536346,367.871124 
	C382.032806,386.358459 361.350433,398.617981 338.258453,407.133209 
	C335.017029,408.328461 332.073700,410.332031 328.992432,411.961426 
z"/>
<path fill="#FE5C5C" opacity="1.000000" stroke="none" 
	d="
M508.061676,780.290527 
	C512.868286,775.085510 517.686096,770.216553 516.137512,761.899780 
	C538.090210,768.804749 559.980286,776.186279 581.859985,783.598450 
	C590.677979,786.585693 599.505249,789.550354 608.273010,792.680237 
	C639.651062,803.881409 659.323975,831.123169 660.097473,864.320190 
	C660.390930,876.914368 664.075806,882.361877 674.655762,885.481873 
	C674.655762,896.803650 674.655762,908.220032 674.655762,919.628113 
	C663.151306,923.210266 660.090088,927.393738 660.062317,939.533264 
	C660.039429,949.521729 660.018799,959.510132 659.980164,969.498535 
	C659.978943,969.801941 659.787537,970.104553 659.480347,971.010620 
	C636.102295,971.010620 612.525269,971.010620 588.485107,970.942993 
	C588.009827,936.739319 588.024353,902.603333 587.974854,868.467407 
	C587.946960,849.224182 583.581787,831.384521 571.086609,816.106384 
	C561.595642,804.501526 549.851013,796.091431 535.865845,790.894531 
	C527.319336,787.718628 518.590515,785.034424 509.963898,782.070312 
	C509.269104,781.831543 508.732086,781.133667 508.061676,780.290527 
z"/>
<path fill="#E3E8EC" opacity="1.000000" stroke="none" 
	d="
M921.459900,405.009460 
	C926.642151,397.581757 926.013062,388.907928 926.010742,380.309631 
	C925.983582,278.840912 925.996521,177.372192 925.990540,75.903481 
	C925.990112,68.694923 925.352173,61.770023 917.179260,58.219666 
	C921.124329,57.633057 925.256226,57.037170 929.377014,57.106232 
	C937.172913,57.236877 945.014282,57.310127 952.739990,58.224804 
	C960.727722,59.170506 967.891418,68.368484 967.978271,76.885750 
	C968.080200,86.884483 968.003479,96.885048 968.003540,106.884819 
	C968.004028,199.049393 967.861938,291.214478 968.193542,383.377869 
	C968.232910,394.314697 959.605896,406.232666 946.418640,405.134979 
	C938.308411,404.459869 930.096069,405.011078 921.459900,405.009460 
z"/>
<path fill="#A7A7A8" opacity="1.000000" stroke="none" 
	d="
M173.030579,537.164673 
	C184.426804,538.043579 195.767639,539.197510 208.393936,540.482239 
	C208.393936,548.631653 208.020782,557.566406 208.457855,566.461365 
	C210.463058,607.269531 227.599869,640.679077 258.557404,667.073853 
	C261.864136,669.893250 263.386169,672.626831 263.312042,677.092224 
	C263.030060,694.079224 263.091003,711.075195 263.305878,728.064209 
	C263.349243,731.492859 262.254120,732.935608 259.144745,734.190002 
	C243.277084,740.591187 227.522278,747.272034 211.382431,753.948975 
	C201.029816,744.752991 192.207260,734.543396 185.693390,722.422607 
	C177.119354,706.468201 172.709473,689.521729 172.853073,671.395508 
	C172.896469,665.917725 172.848724,660.439270 173.198120,654.206909 
	C173.699265,652.812805 173.972000,652.172974 173.972534,651.532898 
	C173.996582,622.894958 174.009735,594.257080 173.954468,565.619202 
	C173.952118,564.402649 173.288818,563.187317 172.933441,561.971436 
	C172.904510,558.956482 172.875595,555.941467 173.173553,552.248962 
	C173.312363,550.039185 173.124283,548.506958 172.936188,546.974731 
	C172.903107,544.946594 172.870026,542.918396 173.118408,540.317017 
	C173.267151,539.162537 173.134445,538.581238 173.001755,538.000000 
	C172.992889,537.813171 172.984039,537.626404 173.030579,537.164673 
z"/>
<path fill="#636465" opacity="1.000000" stroke="none" 
	d="
M503.964752,749.979553 
	C502.034363,749.723511 500.365509,749.681091 498.908447,749.103943 
	C487.309113,744.509705 475.782959,739.729065 464.155151,735.209412 
	C461.252594,734.081299 460.076508,732.586914 460.100250,729.377625 
	C460.234436,711.218750 460.053467,693.057007 460.277985,674.899963 
	C460.304138,672.786133 461.619385,670.016663 463.258942,668.693787 
	C494.179688,643.744080 510.813934,611.036560 515.722778,572.075928 
	C516.800110,563.525940 516.493225,554.800354 516.793640,546.154602 
	C516.861633,544.197815 516.803650,542.236694 516.803650,540.028503 
	C523.273193,539.662415 529.208862,539.326599 535.759460,539.401855 
	C536.603516,541.930908 537.030518,544.048767 537.032410,546.166931 
	C537.071106,589.200806 537.049500,632.234680 537.098999,675.268494 
	C537.101135,677.176086 537.662048,679.083069 537.962769,680.990295 
	C536.761353,705.493408 527.092651,726.303406 510.410034,744.033630 
	C508.473999,746.091248 506.357330,747.978882 503.964752,749.979553 
z"/>
<path fill="#8F9090" opacity="1.000000" stroke="none" 
	d="
M329.391022,412.001953 
	C332.073700,410.332031 335.017029,408.328461 338.258453,407.133209 
	C361.350433,398.617981 382.032806,386.358459 398.536346,367.871124 
	C415.610931,348.744110 421.529449,326.915039 411.537079,302.545227 
	C406.032257,289.119843 395.765900,279.368378 383.222290,272.113281 
	C381.642944,271.199799 379.993103,270.408203 378.184814,269.275574 
	C396.040070,267.934479 413.634033,269.367035 429.172699,279.791229 
	C434.627136,283.450348 439.461304,288.034088 444.942017,292.295044 
	C445.919189,293.838470 446.316315,295.429626 447.181061,296.703247 
	C454.216614,307.065491 459.102814,318.231171 459.724213,330.894196 
	C460.351715,343.681305 456.164490,355.115509 445.788452,362.417084 
	C433.631409,370.971954 420.654907,378.607880 407.313995,385.181519 
	C382.655273,397.331940 356.545746,405.723663 329.391022,412.001953 
z"/>
<path fill="#636566" opacity="1.000000" stroke="none" 
	d="
M534.007629,427.988190 
	C528.565491,427.988190 523.123413,427.988190 516.835205,427.988190 
	C519.508911,396.893585 509.808411,372.147980 481.975311,356.471924 
	C489.305359,332.548157 486.047211,310.747925 469.841003,291.089172 
	C498.326752,290.299103 528.211670,305.660217 535.875366,342.378723 
	C536.889648,347.238068 537.303772,352.222717 537.702271,357.895874 
	C537.291321,360.456970 537.074158,362.271423 537.071899,364.086121 
	C537.048279,383.411011 537.014832,402.736115 537.110229,422.060577 
	C537.123535,424.756958 536.782166,426.917206 534.007629,427.988190 
z"/>
<path fill="#E3E8ED" opacity="1.000000" stroke="none" 
	d="
M676.005493,467.480713 
	C680.069763,463.443329 684.341797,460.086395 688.141418,456.260284 
	C697.140320,447.198517 705.872986,437.873077 714.794678,428.733734 
	C720.946228,422.432159 726.995972,415.994293 733.582947,410.173798 
	C736.068848,407.977142 739.896118,406.321106 743.184387,406.186310 
	C754.796692,405.710266 766.440308,405.999695 778.542114,405.999451 
	C745.438965,439.237488 711.867249,472.476440 678.263428,505.682953 
	C678.023071,505.920532 677.342346,505.712463 675.998596,505.712463 
	C675.998596,493.060150 675.998596,480.504059 676.005493,467.480713 
z"/>
<path fill="#78787A" opacity="1.000000" stroke="none" 
	d="
M538.088013,680.605225 
	C537.662048,679.083069 537.101135,677.176086 537.098999,675.268494 
	C537.049500,632.234680 537.071106,589.200806 537.032410,546.166931 
	C537.030518,544.048767 536.603516,541.930908 536.203308,539.435181 
	C536.821960,538.708862 537.611694,538.360229 538.728882,538.035034 
	C538.972107,540.543640 538.815186,543.028687 538.814575,545.513794 
	C538.804626,586.932007 538.828796,628.350281 538.793152,669.768494 
	C538.790161,673.252502 538.415405,676.736328 538.088013,680.605225 
z"/>
<path fill="#78787A" opacity="1.000000" stroke="none" 
	d="
M534.322266,428.169373 
	C536.782166,426.917206 537.123535,424.756958 537.110229,422.060577 
	C537.014832,402.736115 537.048279,383.411011 537.071899,364.086121 
	C537.074158,362.271423 537.291321,360.456970 537.677368,358.329254 
	C538.233032,364.624695 538.717896,371.231781 538.768372,377.842224 
	C538.896301,394.582611 538.829163,411.324493 538.925659,428.527283 
	C537.553040,428.776031 536.094971,428.563263 534.322266,428.169373 
z"/>
<path fill="#A7A7A7" opacity="1.000000" stroke="none" 
	d="
M172.888336,562.441284 
	C173.288818,563.187317 173.952118,564.402649 173.954468,565.619202 
	C174.009735,594.257080 173.996582,622.894958 173.972534,651.532898 
	C173.972000,652.172974 173.699265,652.812805 173.243408,653.741882 
	C172.903290,623.657715 172.873260,593.284424 172.888336,562.441284 
z"/>
<path fill="#A7A7A7" opacity="1.000000" stroke="none" 
	d="
M172.892487,547.394348 
	C173.124283,548.506958 173.312363,550.039185 173.218735,551.799072 
	C172.907608,550.622498 172.878189,549.218201 172.892487,547.394348 
z"/>
<path fill="#A7A7A7" opacity="1.000000" stroke="none" 
	d="
M172.925049,538.332397 
	C173.134445,538.581238 173.267151,539.162537 173.161880,539.884155 
	C172.898727,539.571289 172.873535,539.117981 172.925049,538.332397 
z"/>
<path fill="#030202" opacity="1.000000" stroke="none" 
	d="
M827.417114,107.600502 
	C896.002258,137.769272 929.701843,216.886597 899.422791,287.284576 
	C868.836670,358.396667 788.161011,390.398438 717.850708,359.887695 
	C648.952332,329.989655 616.392090,248.017502 646.738831,178.287781 
	C676.593750,109.687935 757.063599,77.750618 827.417114,107.600502 
M778.855225,346.101593 
	C784.292175,345.395966 789.788574,344.992828 795.156799,343.937500 
	C843.746338,334.384766 883.098206,289.407227 884.745911,240.211929 
	C886.216064,196.318405 868.207947,161.842346 831.235901,137.813843 
	C816.945312,128.526291 801.107239,123.179771 783.128601,121.932877 
	C773.195129,122.261513 763.099121,121.558395 753.355530,123.092834 
	C704.505859,130.785767 660.432312,173.681015 660.427917,233.105072 
	C660.425537,265.363251 672.607971,293.178650 696.221008,315.405457 
	C719.105042,336.946045 746.390564,347.377502 778.855225,346.101593 
z"/>
<path fill="#FED8B4" opacity="1.000000" stroke="none" 
	d="
M371.976959,676.873779 
	C316.030945,682.204285 257.699829,649.670166 239.320770,593.372314 
	C234.918900,579.888672 233.806396,566.051697 233.708450,552.038757 
	C233.484970,520.064575 233.298828,488.090118 233.098785,456.115753 
	C233.091660,454.978363 233.097855,453.840881 233.097855,452.778961 
	C246.328964,451.483551 259.233704,450.530975 272.054169,448.911224 
	C328.325470,441.801636 382.689606,428.037659 433.380859,401.799286 
	C438.391266,399.205841 443.160858,396.147247 448.459229,393.728333 
	C448.919861,396.317566 449.001373,398.482941 449.001556,400.648315 
	C449.006256,453.645325 449.270203,506.644836 448.774231,559.637207 
	C448.674835,570.256226 446.574921,581.086487 443.838013,591.405701 
	C436.940887,617.410522 422.009460,638.680847 402.002777,656.262634 
	C392.603210,664.522949 381.908722,671.195801 369.934113,675.511597 
	C370.659332,675.995178 371.318146,676.434509 371.976959,676.873779 
M377.071960,561.298340 
	C368.830170,558.742126 360.498230,558.058899 351.970642,559.760620 
	C334.103119,563.326111 316.281494,578.222168 313.238434,604.453674 
	C312.432800,611.397949 317.872131,617.562927 325.228210,618.590271 
	C332.050568,619.543152 338.598145,614.831543 339.898407,607.983765 
	C340.332397,605.697937 340.476471,603.348083 341.030304,601.095642 
	C343.661377,590.394714 355.324982,583.235107 366.035156,585.659912 
	C376.683502,588.070679 382.083496,594.592834 383.946564,607.293396 
	C384.959167,614.196350 391.760437,619.539795 398.532990,618.753113 
	C405.839874,617.904541 411.758362,611.209656 410.750061,604.246216 
	C407.803650,583.897766 397.469360,569.112610 377.071960,561.298340 
M288.656494,480.308472 
	C287.941528,481.979279 286.634460,483.641541 286.610229,485.322357 
	C286.478424,494.462067 286.150452,503.649475 286.915161,512.734192 
	C287.442688,519.001221 293.989288,522.881348 300.674438,522.216370 
	C307.169861,521.570251 311.956787,516.854248 312.123199,510.534485 
	C312.311737,503.375305 312.116119,496.206604 312.254303,489.045258 
	C312.371704,482.959595 310.255524,478.196594 304.405243,475.902893 
	C298.552094,473.608124 293.314575,474.872253 288.656494,480.308472 
M412.382111,516.888916 
	C417.255005,522.105286 422.354980,523.563782 427.982666,521.350342 
	C433.423615,519.210327 435.897705,514.976379 435.906921,507.761688 
	C435.915253,501.265564 435.969971,494.768829 435.898865,488.273499 
	C435.812897,480.422302 430.747986,475.076416 423.405762,474.943848 
	C415.794556,474.806396 410.318237,480.142426 410.118774,488.081055 
	C409.993317,493.074768 409.864746,498.090149 410.186096,503.066803 
	C410.470520,507.471039 411.375244,511.835205 412.382111,516.888916 
z"/>
<path fill="#FDBE9C" opacity="1.000000" stroke="none" 
	d="
M372.413971,676.941650 
	C371.318146,676.434509 370.659332,675.995178 369.934113,675.511597 
	C381.908722,671.195801 392.603210,664.522949 402.002777,656.262634 
	C422.009460,638.680847 436.940887,617.410522 443.838013,591.405701 
	C446.574921,581.086487 448.674835,570.256226 448.774231,559.637207 
	C449.270203,506.644836 449.006256,453.645325 449.001556,400.648315 
	C449.001373,398.482941 448.919861,396.317566 448.818237,393.624847 
	C448.760254,393.097504 448.797577,393.136139 448.863098,393.295929 
	C449.042114,393.508453 449.155609,393.561157 449.269104,393.613892 
	C449.185669,393.403992 449.102234,393.194122 449.018799,392.984192 
	C454.926971,388.427887 460.835175,383.871582 466.865967,379.220703 
	C482.487549,384.838989 491.063019,396.768494 490.982239,413.473358 
	C490.754333,460.605499 490.542603,507.738159 490.125427,554.868835 
	C489.625793,611.311035 455.895477,655.808411 401.217529,671.790710 
	C392.037842,674.473938 382.320099,675.316528 372.413971,676.941650 
z"/>
<path fill="#F0F4F5" opacity="1.000000" stroke="none" 
	d="
M463.497559,787.499939 
	C429.485962,821.583557 395.719696,855.419312 362.216675,888.991272 
	C322.114166,848.869995 282.349335,809.086548 242.558655,769.277283 
	C252.293930,765.004395 262.289307,760.617310 272.445862,756.159546 
	C288.270203,771.688904 304.087067,787.191772 319.881348,802.717651 
	C330.099182,812.761780 340.268829,822.854980 350.488953,832.896790 
	C357.847015,840.126404 366.346436,839.965027 373.724487,832.643677 
	C399.142365,807.421204 424.592133,782.230835 450.223877,756.835938 
	C460.328644,761.251953 470.298889,765.609131 481.439606,770.477844 
	C475.094208,776.492432 469.418549,781.872192 463.497559,787.499939 
z"/>
<path fill="#FED8B4" opacity="1.000000" stroke="none" 
	d="
M415.327087,754.090088 
	C397.697357,771.985291 380.067719,789.880615 362.274414,807.942017 
	C347.811737,793.744446 334.159973,780.338257 320.502716,766.937622 
	C310.989044,757.602600 301.360077,748.380615 292.046295,738.850464 
	C290.304932,737.068604 288.938293,734.083252 288.888580,731.623169 
	C288.596039,717.140381 288.744629,702.648682 288.744629,687.262024 
	C314.131866,699.270569 340.410034,705.112915 368.545593,704.513184 
	C369.010162,710.856873 368.768280,716.670105 369.064240,722.455872 
	C369.697174,734.829895 371.969513,740.813110 385.478333,745.215454 
	C395.344208,748.430603 405.371704,751.149841 415.327087,754.090088 
z"/>
<path fill="#FCBE9C" opacity="1.000000" stroke="none" 
	d="
M415.622498,753.959229 
	C405.371704,751.149841 395.344208,748.430603 385.478333,745.215454 
	C371.969513,740.813110 369.697174,734.829895 369.064240,722.455872 
	C368.768280,716.670105 369.010162,710.856873 369.008240,704.596375 
	C391.662201,702.441528 413.507172,697.437866 434.940552,687.284790 
	C434.940552,701.217590 434.615784,714.286865 435.087921,727.327332 
	C435.299896,733.182129 433.699280,737.365051 429.246185,741.087585 
	C424.541168,745.020752 420.339447,749.556091 415.622498,753.959229 
z"/>
<path fill="#F9BA99" opacity="1.000000" stroke="none" 
	d="
M193.110504,452.912659 
	C198.196808,452.914093 202.800964,452.914093 207.639832,452.914093 
	C207.639832,473.436279 207.639832,493.475800 207.639832,513.973755 
	C200.338196,513.973755 193.060181,514.433289 185.871170,513.830750 
	C179.941559,513.333923 174.861511,507.447601 174.624527,500.915863 
	C174.209061,489.464722 174.076218,477.974792 174.537048,466.529755 
	C174.885651,457.871613 182.051682,452.903961 193.110504,452.912659 
z"/>
<path fill="#FCBB9A" opacity="1.000000" stroke="none" 
	d="
M528.960388,453.159027 
	C536.837524,454.286102 541.855835,459.663177 541.937073,467.426636 
	C542.048096,478.031128 541.985779,488.637787 541.951172,499.243347 
	C541.925049,507.248230 538.625427,511.531799 530.021667,513.674744 
	C527.367676,513.231262 525.349854,512.819153 523.419800,513.073486 
	C518.942017,513.663513 517.809265,511.878021 517.885010,507.519043 
	C518.147583,492.407104 517.983887,477.287781 517.983093,462.171265 
	C517.982666,454.243866 517.984436,454.271729 525.694885,453.947021 
	C526.792542,453.900787 527.872314,453.432159 528.960388,453.159027 
z"/>
<path fill="#FED8B4" opacity="1.000000" stroke="none" 
	d="
M528.505859,453.066162 
	C527.872314,453.432159 526.792542,453.900787 525.694885,453.947021 
	C517.984436,454.271729 517.982666,454.243866 517.983093,462.171265 
	C517.983887,477.287781 518.147583,492.407104 517.885010,507.519043 
	C517.809265,511.878021 518.942017,513.663513 523.419800,513.073486 
	C525.349854,512.819153 527.367676,513.231262 529.651062,513.611206 
	C525.696655,513.881836 521.436768,513.881836 516.985352,513.881836 
	C516.985352,493.612640 516.985352,473.482544 516.985352,452.973328 
	C520.833374,452.973328 524.442383,452.973328 528.505859,453.066162 
z"/>
<path fill="#FED8B4" opacity="1.000000" stroke="none" 
	d="
M448.939026,392.986115 
	C449.102234,393.194122 449.185669,393.403992 449.269104,393.613892 
	C449.155609,393.561157 449.042114,393.508453 448.840546,393.281128 
	C448.752472,393.106567 448.859253,392.988007 448.939026,392.986115 
z"/>
<path fill="#FE7972" opacity="1.000000" stroke="none" 
	d="
M777.980896,345.948120 
	C746.390564,347.377502 719.105042,336.946045 696.221008,315.405457 
	C672.607971,293.178650 660.425537,265.363251 660.427917,233.105072 
	C660.432312,173.681015 704.505859,130.785767 753.355530,123.092834 
	C763.099121,121.558395 773.195129,122.261513 783.310120,122.271133 
	C782.299622,122.850456 781.107544,123.091522 779.556946,123.405106 
	C817.617981,140.144852 851.252563,186.716751 845.036499,246.063232 
	C840.252319,291.738770 810.134827,331.259705 773.974487,344.502289 
	C775.309631,344.985199 776.645264,345.466644 777.980896,345.948120 
M808.400269,270.095123 
	C798.615479,260.852325 786.859253,256.583832 773.533142,256.312469 
	C753.870117,255.912079 736.087036,266.412750 728.915894,282.634491 
	C725.875916,289.511139 727.714355,295.531342 733.868225,298.851349 
	C740.342773,302.344299 747.085388,300.054474 751.088196,293.003174 
	C757.057495,282.487671 768.390808,277.793976 780.033325,281.017548 
	C786.967346,282.937469 792.030518,287.087860 795.553101,293.399567 
	C799.385559,300.266663 806.492615,302.286011 812.975952,298.682281 
	C818.892883,295.393402 820.780884,288.605774 817.040588,281.869110 
	C814.806335,277.844940 811.646606,274.334656 808.400269,270.095123 
M837.186584,209.484558 
	C837.174011,205.819290 837.248047,202.151215 837.130066,198.489349 
	C836.915100,191.817352 831.906982,187.019012 825.221436,186.947678 
	C818.247803,186.873276 813.154785,191.657074 813.012085,198.648972 
	C812.882874,204.977570 812.881653,211.312378 812.996033,217.641357 
	C813.120483,224.524780 818.410034,229.525726 825.233032,229.431458 
	C832.241882,229.334595 836.982178,224.599289 837.161682,217.468613 
	C837.220398,215.137466 837.180481,212.803864 837.186584,209.484558 
M733.015137,205.545151 
	C733.006714,203.218216 733.090515,200.886581 732.972290,198.565247 
	C732.641541,192.073837 727.481140,187.307053 720.799500,187.227417 
	C714.305908,187.150024 709.030640,192.116577 708.890503,198.694809 
	C708.752441,205.174164 708.750244,211.660522 708.874451,218.140228 
	C708.997559,224.561569 713.941040,229.209274 720.442139,229.276855 
	C727.517212,229.350418 732.561951,225.097855 732.927612,218.491821 
	C733.147705,214.514099 732.999634,210.516006 733.015137,205.545151 
z"/>
<path fill="#FD5D5D" opacity="1.000000" stroke="none" 
	d="
M778.418091,346.024841 
	C776.645264,345.466644 775.309631,344.985199 773.974487,344.502289 
	C810.134827,331.259705 840.252319,291.738770 845.036499,246.063232 
	C851.252563,186.716751 817.617981,140.144852 779.556946,123.405106 
	C781.107544,123.091522 782.299622,122.850456 783.727539,122.370453 
	C801.107239,123.179771 816.945312,128.526291 831.235901,137.813843 
	C868.207947,161.842346 886.216064,196.318405 884.745911,240.211929 
	C883.098206,289.407227 843.746338,334.384766 795.156799,343.937500 
	C789.788574,344.992828 784.292175,345.395966 778.418091,346.024841 
z"/>
<path fill="#030302" opacity="1.000000" stroke="none" 
	d="
M377.430969,561.465332 
	C397.469360,569.112610 407.803650,583.897766 410.750061,604.246216 
	C411.758362,611.209656 405.839874,617.904541 398.532990,618.753113 
	C391.760437,619.539795 384.959167,614.196350 383.946564,607.293396 
	C382.083496,594.592834 376.683502,588.070679 366.035156,585.659912 
	C355.324982,583.235107 343.661377,590.394714 341.030304,601.095642 
	C340.476471,603.348083 340.332397,605.697937 339.898407,607.983765 
	C338.598145,614.831543 332.050568,619.543152 325.228210,618.590271 
	C317.872131,617.562927 312.432800,611.397949 313.238434,604.453674 
	C316.281494,578.222168 334.103119,563.326111 351.970642,559.760620 
	C360.498230,558.058899 368.830170,558.742126 377.430969,561.465332 
z"/>
<path fill="#040403" opacity="1.000000" stroke="none" 
	d="
M288.867432,479.992371 
	C293.314575,474.872253 298.552094,473.608124 304.405243,475.902893 
	C310.255524,478.196594 312.371704,482.959595 312.254303,489.045258 
	C312.116119,496.206604 312.311737,503.375305 312.123199,510.534485 
	C311.956787,516.854248 307.169861,521.570251 300.674438,522.216370 
	C293.989288,522.881348 287.442688,519.001221 286.915161,512.734192 
	C286.150452,503.649475 286.478424,494.462067 286.610229,485.322357 
	C286.634460,483.641541 287.941528,481.979279 288.867432,479.992371 
z"/>
<path fill="#040403" opacity="1.000000" stroke="none" 
	d="
M412.194092,516.552979 
	C411.375244,511.835205 410.470520,507.471039 410.186096,503.066803 
	C409.864746,498.090149 409.993317,493.074768 410.118774,488.081055 
	C410.318237,480.142426 415.794556,474.806396 423.405762,474.943848 
	C430.747986,475.076416 435.812897,480.422302 435.898865,488.273499 
	C435.969971,494.768829 435.915253,501.265564 435.906921,507.761688 
	C435.897705,514.976379 433.423615,519.210327 427.982666,521.350342 
	C422.354980,523.563782 417.255005,522.105286 412.194092,516.552979 
z"/>
<path fill="#040101" opacity="1.000000" stroke="none" 
	d="
M808.651611,270.344238 
	C811.646606,274.334656 814.806335,277.844940 817.040588,281.869110 
	C820.780884,288.605774 818.892883,295.393402 812.975952,298.682281 
	C806.492615,302.286011 799.385559,300.266663 795.553101,293.399567 
	C792.030518,287.087860 786.967346,282.937469 780.033325,281.017548 
	C768.390808,277.793976 757.057495,282.487671 751.088196,293.003174 
	C747.085388,300.054474 740.342773,302.344299 733.868225,298.851349 
	C727.714355,295.531342 725.875916,289.511139 728.915894,282.634491 
	C736.087036,266.412750 753.870117,255.912079 773.533142,256.312469 
	C786.859253,256.583832 798.615479,260.852325 808.651611,270.344238 
z"/>
<path fill="#040101" opacity="1.000000" stroke="none" 
	d="
M837.186157,209.977966 
	C837.180481,212.803864 837.220398,215.137466 837.161682,217.468613 
	C836.982178,224.599289 832.241882,229.334595 825.233032,229.431458 
	C818.410034,229.525726 813.120483,224.524780 812.996033,217.641357 
	C812.881653,211.312378 812.882874,204.977570 813.012085,198.648972 
	C813.154785,191.657074 818.247803,186.873276 825.221436,186.947678 
	C831.906982,187.019012 836.915100,191.817352 837.130066,198.489349 
	C837.248047,202.151215 837.174011,205.819290 837.186157,209.977966 
z"/>
<path fill="#040101" opacity="1.000000" stroke="none" 
	d="
M733.016052,206.036102 
	C732.999634,210.516006 733.147705,214.514099 732.927612,218.491821 
	C732.561951,225.097855 727.517212,229.350418 720.442139,229.276855 
	C713.941040,229.209274 708.997559,224.561569 708.874451,218.140228 
	C708.750244,211.660522 708.752441,205.174164 708.890503,198.694809 
	C709.030640,192.116577 714.305908,187.150024 720.799500,187.227417 
	C727.481140,187.307053 732.641541,192.073837 732.972290,198.565247 
	C733.090515,200.886581 733.006714,203.218216 733.016052,206.036102 
z"/>
</svg>