<?xml version="1.0" encoding="iso-8859-1"?>
<!-- Uploaded to: SVG Repo, www.svgrepo.com, Generator: SVG Repo Mixer Tools -->
<svg height="800px" width="800px" version="1.1" id="Layer_1" xmlns="http://www.w3.org/2000/svg" xmlns:xlink="http://www.w3.org/1999/xlink" 
	 viewBox="0 0 503.467 503.467" xml:space="preserve">
<g transform="translate(1 1)">
	<path style="fill:#F2EDDA;" d="M37.4,498.2V250.733l179.2-179.2L250.733,37.4l34.133,34.133l179.2,179.2V498.2H327.533
		c9.387,0,17.067-7.68,17.067-17.067V361.667c0-9.387-7.68-17.067-17.067-17.067h-17.067v-42.667
		c0-33.28-26.453-59.733-59.733-59.733S191,268.653,191,301.933V344.6h-17.067c-9.387,0-17.067,7.68-17.067,17.067v119.467
		c0,9.387,7.68,17.067,17.067,17.067H37.4z"/>
	<path style="fill:#AAB1BA;" d="M276.333,301.933V344.6h-51.2v-42.667c0-14.507,11.093-25.6,25.6-25.6
		C265.24,276.333,276.333,287.427,276.333,301.933"/>
	<path style="fill:#FF7474;" d="M216.6,71.533l-179.2,179.2L3.267,284.867V71.533h102.4V37.4H88.6V3.267h68.267V37.4H139.8v34.133
		H216.6z M498.2,71.533v213.333l-34.133-34.133l-179.2-179.2H498.2z"/>
	<path style="fill:#AAB1BA;" d="M88.6,344.6v-51.2h68.267v68.267V395.8H88.6V344.6z M250.733,139.8c14.507,0,25.6,11.093,25.6,25.6
		s-11.093,25.6-25.6,25.6c-14.507,0-25.6-11.093-25.6-25.6S236.227,139.8,250.733,139.8z M412.867,344.6v51.2H344.6v-34.133V293.4
		h68.267V344.6z"/>
	<path style="fill:#FFE079;" d="M327.533,344.6c9.387,0,17.067,7.68,17.067,17.067V395.8v85.333c0,9.387-7.68,17.067-17.067,17.067
		h-153.6c-9.387,0-17.067-7.68-17.067-17.067V395.8v-34.133c0-9.387,7.68-17.067,17.067-17.067H191h34.133h51.2h34.133H327.533z"/>
	<path style="fill:#ECF4F7;" d="M310.467,301.933V344.6h-34.133v-42.667c0-14.507-11.093-25.6-25.6-25.6
		c-14.507,0-25.6,11.093-25.6,25.6V344.6H191v-42.667c0-33.28,26.453-59.733,59.733-59.733S310.467,268.653,310.467,301.933"/>
</g>
<path style="fill:#51565F;" d="M499.2,503.467H379.733c-2.56,0-4.267-1.707-4.267-4.267c0-2.56,1.707-4.267,4.267-4.267H460.8v-192
	c0-2.56,1.707-4.267,4.267-4.267s4.267,1.707,4.267,4.267v192H499.2c2.56,0,4.267,1.707,4.267,4.267
	C503.467,501.76,501.76,503.467,499.2,503.467z M328.533,503.467h-153.6c-11.947,0-21.333-9.387-21.333-21.333V362.667
	c0-11.947,9.387-21.333,21.333-21.333h12.8v-38.4c0-34.987,29.013-64,64-64s64,29.013,64,64v38.4h12.8
	c11.947,0,21.333,9.387,21.333,21.333v119.467C349.867,494.08,340.48,503.467,328.533,503.467z M174.933,349.867
	c-6.827,0-12.8,5.973-12.8,12.8v119.467c0,6.827,5.973,12.8,12.8,12.8h153.6c6.827,0,12.8-5.973,12.8-12.8V362.667
	c0-6.827-5.973-12.8-12.8-12.8H174.933z M281.6,341.333h25.6v-38.4c0-30.72-24.747-55.467-55.467-55.467
	s-55.467,24.747-55.467,55.467v38.4h25.6v-38.4c0-16.213,13.653-29.867,29.867-29.867S281.6,286.72,281.6,302.933V341.333z
	 M230.4,341.333h42.667v-38.4c0-11.947-9.387-21.333-21.333-21.333c-11.947,0-21.333,9.387-21.333,21.333V341.333z M123.733,503.467
	H4.267C1.707,503.467,0,501.76,0,499.2c0-2.56,1.707-4.267,4.267-4.267h29.867v-192c0-2.56,1.707-4.267,4.267-4.267
	s4.267,1.707,4.267,4.267v192h81.067c2.56,0,4.267,1.707,4.267,4.267C128,501.76,126.293,503.467,123.733,503.467z M251.733,435.2
	c-2.56,0-4.267-1.707-4.267-4.267v-17.067c0-2.56,1.707-4.267,4.267-4.267c2.56,0,4.267,1.707,4.267,4.267v17.067
	C256,433.493,254.293,435.2,251.733,435.2z M430.933,401.067h-51.2c-2.56,0-4.267-1.707-4.267-4.267s1.707-4.267,4.267-4.267H409.6
	v-42.667h-29.867c-2.56,0-4.267-1.707-4.267-4.267c0-2.56,1.707-4.267,4.267-4.267H409.6v-42.667h-59.733v12.8
	c0,2.56-1.707,4.267-4.267,4.267s-4.267-1.707-4.267-4.267V294.4c0-2.56,1.707-4.267,4.267-4.267h68.267
	c2.56,0,4.267,1.707,4.267,4.267v98.133h12.8c2.56,0,4.267,1.707,4.267,4.267S433.493,401.067,430.933,401.067z M123.733,401.067
	h-51.2c-2.56,0-4.267-1.707-4.267-4.267s1.707-4.267,4.267-4.267h12.8V294.4c0-2.56,1.707-4.267,4.267-4.267h68.267
	c2.56,0,4.267,1.707,4.267,4.267v17.067c0,2.56-1.707,4.267-4.267,4.267c-2.56,0-4.267-1.707-4.267-4.267v-12.8H93.867v42.667
	h29.867c2.56,0,4.267,1.707,4.267,4.267c0,2.56-1.707,4.267-4.267,4.267H93.867v42.667h29.867c2.56,0,4.267,1.707,4.267,4.267
	S126.293,401.067,123.733,401.067z M4.267,290.133c-0.853,0-0.853,0-1.707,0C0.853,289.28,0,287.573,0,285.867V72.533
	c0-0.853,0.853-2.56,0.853-3.413s1.707-0.853,3.413-0.853H102.4v-25.6H89.6c-2.56,0-4.267-1.707-4.267-4.267V4.267
	C85.333,1.707,87.04,0,89.6,0h68.267c2.56,0,4.267,1.707,4.267,4.267V38.4c0,2.56-1.707,4.267-4.267,4.267h-12.8v25.6H166.4
	c2.56,0,4.267,1.707,4.267,4.267c0,2.56-1.707,4.267-4.267,4.267h-25.6c-2.56,0-4.267-1.707-4.267-4.267V38.4
	c0-2.56,1.707-4.267,4.267-4.267h12.8v-25.6H93.867v25.6h12.8c2.56,0,4.267,1.707,4.267,4.267v34.133
	c0,2.56-1.707,4.267-4.267,4.267H8.533v198.827L248.32,35.84c0.853-0.853,2.56-0.853,3.413-0.853c1.707,0,2.56,0,3.413,0.853
	l239.787,239.787V76.8H337.067c-2.56,0-4.267-1.707-4.267-4.267c0-2.56,1.707-4.267,4.267-4.267H499.2
	c2.56,0,4.267,1.707,4.267,4.267v213.333c0,1.707-0.853,3.413-2.56,4.267c-1.707,0.853-3.413,0-4.267-0.853L252.587,45.227
	L8.533,289.28C6.827,289.28,5.12,290.133,4.267,290.133z M251.733,196.267c-16.213,0-29.867-13.653-29.867-29.867
	s13.653-29.867,29.867-29.867S281.6,150.187,281.6,166.4S267.947,196.267,251.733,196.267z M251.733,145.067
	c-11.947,0-21.333,9.387-21.333,21.333s9.387,21.333,21.333,21.333c11.947,0,21.333-9.387,21.333-21.333
	S263.68,145.067,251.733,145.067z"/>
</svg>